# Blender v2.93.5 OBJ File: 'Sphere.blend'
# www.blender.org
mtllib Sphere.mtl
o Sphere
v -0.484628 -1.940268 -2.287736
v 0.494198 -2.230600 -2.048726
v 0.096388 1.676327 -2.547338
v 0.260341 -0.873660 -2.938264
v 1.267784 1.385623 -2.371857
v 0.268255 2.838529 -1.108359
v 1.319400 0.409236 -2.741014
v 1.715922 -1.406926 -2.059591
v 1.149506 2.351344 -1.541460
v 2.213841 -0.354576 -2.064253
v 1.570508 -2.224647 -1.360960
v 0.098570 -2.920835 -0.848754
v 2.211052 1.479447 -1.477377
v 2.543893 -1.381014 -0.919848
v 1.549761 2.581851 -0.565868
v 2.864073 0.125747 -1.099574
v 2.832875 1.164923 0.006181
v 1.880599 2.357066 0.275176
v 2.955612 -0.678370 0.257696
v 2.141089 -2.186226 -0.168582
v 2.675070 -0.038392 1.509050
v 2.286522 1.718205 1.138396
v 2.064551 1.041595 1.962184
v 2.156775 -1.215746 1.843969
v 0.853780 -2.910148 0.015702
v 1.378946 -1.868219 1.951614
v 1.328861 -2.603786 0.946409
v 1.078978 0.522202 2.822301
v 0.845821 -0.879402 2.770571
v 0.778373 2.732931 1.095726
v 0.771435 1.985774 2.176819
v 0.090790 -2.092565 2.229289
v -0.299181 0.000001 3.037636
v -0.162469 -2.665118 1.433254
v -0.758826 1.432199 2.604035
v -1.464534 0.296926 2.633605
v -1.004074 -1.241558 2.628063
v -0.630693 2.592609 1.520506
v -2.371361 0.301790 1.950712
v -1.350333 -2.337848 1.374906
v 0.098133 3.011878 0.367652
v -0.491762 -2.980906 0.402926
v -2.060971 1.942039 1.150966
v -2.963190 0.536907 0.595403
v -2.525354 -1.226132 1.279868
v -2.366192 -1.901888 0.318900
v -2.634903 1.384464 -0.722554
v -2.920562 -0.002042 -0.909149
v -2.864401 -0.927705 -0.514405
v -1.658280 2.586189 -0.077294
v -2.464318 0.061342 -1.805569
v -2.204824 -1.446779 -1.504395
v -1.272552 -2.196546 -1.697469
v -1.518393 -2.638003 -0.440783
v -0.695245 2.863128 -0.816778
v -1.583456 -0.533288 -2.572729
v -1.473609 1.889278 -1.942563
v -0.771944 0.506961 -2.942929
vt 0.755489 0.719712
vt 0.737532 0.532886
vt 0.834642 0.645575
vt 0.816472 0.464727
vt 0.839208 0.296490
vt 0.881828 0.380562
vt 0.625135 0.829304
vt 0.643618 0.716091
vt 0.702826 0.629851
vt 0.699225 0.411325
vt 0.748462 0.330607
vt 0.768547 0.217332
vt 0.637358 0.573994
vt 0.662237 0.262876
vt 0.922693 0.193222
vt 0.918339 0.089185
vt 0.627632 0.411756
vt 1.031802 0.173305
vt 0.569598 0.696203
vt 0.563868 0.487657
vt 0.568721 0.293281
vt 0.527924 0.642500
vt 0.494296 0.544798
vt 0.484062 0.349939
vt 0.468855 0.828362
vt 0.452106 0.719711
vt 0.444475 0.238120
vt 0.656110 0.148794
vt 0.399201 0.608968
vt 0.374503 0.442092
vt 0.335734 0.315987
vt 0.448427 0.469287
vt 0.032684 0.092195
vt 0.360814 0.073695
vt 0.057288 0.182393
vt 0.249594 0.228310
vt 0.161950 0.171734
vt 0.364981 0.176707
vt 0.295516 0.451089
vt 0.224121 0.373578
vt 0.303503 0.615687
vt 0.348821 0.766114
vt 0.245053 0.534677
vt 0.129719 0.295895
vt 0.212826 0.777336
vt 0.190097 0.587624
vt 0.128615 0.467822
vt 0.068655 0.414916
vt 0.026363 0.315856
vt 0.122958 0.662403
vt 0.211055 0.912689
vt 0.045120 0.792186
vt 0.038164 0.529371
vt 0.027592 0.643433
vt 0.002796 0.459454
vt 1.006404 0.709363
vt 0.996246 0.797042
vt 0.966588 0.656746
vt 0.999991 0.320061
vt 0.974300 0.488673
vt 0.940672 0.378410
vt 0.874828 0.818031
vt 0.903005 0.569354
vt 0.622149 0.916101
vt 0.926209 0.054528
vt 0.640083 0.918506
vt 1.003585 0.521934
vt 1.004397 0.584414
vn 0.1046 0.2481 -0.9631
vn 0.0440 -0.5424 -0.8390
vn 0.1129 0.7664 -0.6324
vn 0.2675 0.6468 -0.7142
vn 0.4486 -0.2379 -0.8615
vn 0.4200 -0.6315 -0.6518
vn 0.5230 0.5916 -0.6136
vn 0.7583 -0.3612 -0.5427
vn 0.3302 -0.9022 -0.2773
vn 0.7322 0.1691 -0.6598
vn 0.0448 -0.9986 -0.0268
vn 0.7647 0.6158 -0.1900
vn 0.9976 0.0623 -0.0304
vn 0.7876 0.6107 0.0816
vn 0.9807 0.0891 0.1743
vn 0.3204 0.9452 0.0628
vn 0.8902 -0.2926 0.3492
vn 0.8238 -0.5131 0.2410
vn 0.9125 0.2672 0.3098
vn 0.4726 0.7236 0.5031
vn 0.5518 -0.1222 0.8250
vn 0.4490 0.4379 0.7789
vn 0.1233 -0.9596 0.2530
vn 0.2060 -0.8243 0.5273
vn 0.2658 -0.5259 0.8080
vn -0.0133 -0.3064 0.9518
vn 0.1003 0.4191 0.9024
vn 0.0353 0.2999 0.9533
vn 0.1784 -0.0659 0.9818
vn 0.0116 0.9373 0.3482
vn -0.2762 0.1962 0.9409
vn -0.2839 -0.6814 0.6746
vn -0.4509 0.6352 0.6270
vn -0.5853 0.4421 0.6797
vn -0.5923 -0.1801 0.7853
vn -0.6432 -0.2526 0.7229
vn -0.6569 -0.6637 0.3579
vn -0.5441 -0.8182 0.1856
vn -0.8287 0.3641 0.4250
vn -0.2729 0.9466 0.1717
vn -0.7903 0.6097 0.0606
vn -0.9713 -0.1817 0.1533
vn -0.9980 -0.0630 -0.0057
vn -0.9712 0.2141 -0.1042
vn -0.7826 -0.5842 -0.2151
vn -0.8724 0.2372 -0.4273
vn -0.2055 -0.9681 -0.1434
vn -0.6283 -0.6874 -0.3644
vn -0.5848 0.2594 -0.7686
vn -0.2488 -0.8976 -0.3640
vn -0.4190 -0.4829 -0.7689
vn -0.1209 -0.8414 -0.5267
vn -0.0103 0.9930 -0.1178
vn -0.1307 0.7789 -0.6134
vn 0.0991 0.0708 -0.9926
vn 0.2241 0.3550 -0.9076
vn 0.4459 -0.2148 -0.8690
vn 0.3171 -0.4811 -0.8173
vn 0.2683 -0.8706 -0.4123
vn 0.6402 0.3010 -0.7067
vn 0.3212 0.8837 -0.3406
vn 0.6875 -0.5385 -0.4872
vn 0.5942 0.6934 -0.4076
vn 0.7218 0.2874 -0.6296
vn 0.4600 -0.8669 -0.1922
vn 0.8562 -0.2367 -0.4592
vn 0.6991 -0.6425 -0.3138
vn 0.8894 0.3454 -0.2995
vn 0.2310 0.9690 -0.0872
vn 0.9536 -0.2263 -0.1984
vn 0.8829 -0.4687 -0.0290
vn 0.7604 0.6365 -0.1290
vn 0.4936 -0.8690 0.0341
vn 0.3837 0.9186 0.0946
vn 0.7247 -0.6228 0.2947
vn 0.8419 0.2832 0.4594
vn 0.5189 0.7855 0.3373
vn 0.6102 -0.6535 0.4478
vn 0.5273 0.5814 0.6196
vn 0.6438 0.0434 0.7639
vn 0.6234 -0.0525 0.7801
vn 0.4538 -0.4104 0.7910
vn 0.2580 -0.7858 0.5621
vn 0.1226 -0.9592 0.2548
vn 0.0893 0.8191 0.5667
vn 0.0107 -0.4130 0.9107
vn -0.0444 0.6844 0.7277
vn -0.3501 -0.1081 0.9304
vn -0.2643 -0.8952 0.3588
vn -0.2372 -0.7513 0.6159
vn -0.5614 -0.5397 0.6273
vn -0.5584 0.3665 0.7442
vn -0.4574 0.8404 0.2908
vn -0.4454 -0.8758 0.1860
vn -0.9185 -0.0776 0.3876
vn -0.2456 0.9684 0.0429
vn -0.8557 0.5052 0.1118
vn -0.9202 -0.3753 0.1115
vn -0.7453 -0.6284 -0.2228
vn -0.6419 0.6953 -0.3233
vn -0.8598 -0.2403 -0.4505
vn -0.7454 0.3620 -0.5597
vn -0.7268 -0.2526 -0.6387
vn -0.4953 0.7966 -0.3467
vn -0.5256 -0.4710 -0.7085
vn -0.5800 0.1689 -0.7969
vn -0.2463 -0.3735 -0.8944
vn -0.1559 0.7978 -0.5824
vn -0.2590 0.4765 -0.8401
vn -0.1205 -0.8428 -0.5245
vn -0.2216 -0.1689 -0.9604
usemtl Material.001
s off
f 3/1/1 7/2/1 58/3/1
f 4/4/2 2/5/2 1/6/2
f 6/7/3 9/8/3 3/1/3
f 3/1/4 9/8/4 5/9/4
f 7/2/5 10/10/5 4/4/5
f 2/5/6 8/11/6 11/12/6
f 9/8/7 13/13/7 5/9/7
f 8/11/8 10/10/8 14/14/8
f 12/15/9 11/12/9 25/16/9
f 13/13/10 16/17/10 7/2/10
f 42/18/11 12/15/11 25/16/11
f 13/13/12 15/19/12 17/20/12
f 16/17/13 17/20/13 19/21/13
f 17/20/14 18/22/14 22/23/14
f 19/21/15 17/20/15 21/24/15
f 41/25/16 30/26/16 15/19/16
f 19/21/17 21/24/17 24/27/17
f 19/21/18 24/27/18 20/28/18
f 17/20/19 22/23/19 21/24/19
f 30/26/20 31/29/20 22/23/20
f 28/30/21 29/31/21 24/27/21
f 31/29/22 28/30/22 23/32/22
f 25/33/23 27/34/23 42/35/23
f 27/34/24 32/36/24 34/37/24
f 29/31/25 32/36/25 26/38/25
f 29/31/26 33/39/26 37/40/26
f 31/29/27 35/41/27 28/30/27
f 28/30/28 35/41/28 33/39/28
f 28/30/29 33/39/29 29/31/29
f 41/25/30 38/42/30 30/26/30
f 33/39/31 35/41/31 36/43/31
f 37/40/32 40/44/32 32/36/32
f 38/42/33 43/45/33 35/41/33
f 35/41/34 43/45/34 39/46/34
f 36/43/35 39/46/35 37/40/35
f 37/40/36 39/46/36 45/47/36
f 45/47/37 46/48/37 40/44/37
f 40/44/38 46/48/38 54/49/38
f 39/46/39 43/45/39 44/50/39
f 41/25/40 50/51/40 38/42/40
f 43/45/41 50/51/41 47/52/41
f 44/50/42 49/53/42 45/47/42
f 44/50/43 48/54/43 49/53/43
f 44/50/44 47/52/44 48/54/44
f 49/53/45 52/55/45 46/48/45
f 48/56/46 47/57/46 51/58/46
f 54/59/47 12/15/47 42/18/47
f 52/60/48 53/61/48 54/59/48
f 51/58/49 57/62/49 58/3/49
f 53/61/50 12/15/50 54/59/50
f 56/63/51 1/6/51 53/61/51
f 53/61/52 1/6/52 2/5/52
f 55/64/53 41/25/53 6/7/53
f 57/62/54 6/7/54 3/1/54
f 58/3/55 7/2/55 4/4/55
f 7/2/56 3/1/56 5/9/56
f 4/4/57 10/10/57 8/11/57
f 2/5/58 4/4/58 8/11/58
f 2/5/59 11/12/59 12/15/59
f 5/9/60 13/13/60 7/2/60
f 6/7/61 15/19/61 9/8/61
f 8/11/62 14/14/62 11/12/62
f 13/13/63 9/8/63 15/19/63
f 10/10/64 7/2/64 16/17/64
f 25/16/65 11/12/65 20/28/65
f 10/10/66 16/17/66 14/14/66
f 11/12/67 14/14/67 20/28/67
f 16/17/68 13/13/68 17/20/68
f 6/7/69 41/25/69 15/19/69
f 14/14/70 16/17/70 19/21/70
f 14/14/71 19/21/71 20/28/71
f 17/20/72 15/19/72 18/22/72
f 20/28/73 27/65/73 25/16/73
f 18/22/74 15/19/74 30/26/74
f 20/28/75 24/27/75 27/65/75
f 21/24/76 22/23/76 23/32/76
f 18/22/77 30/26/77 22/23/77
f 27/65/78 24/27/78 26/38/78
f 22/23/79 31/29/79 23/32/79
f 21/24/80 23/32/80 28/30/80
f 21/24/81 28/30/81 24/27/81
f 24/27/82 29/31/82 26/38/82
f 27/34/83 26/38/83 32/36/83
f 42/35/84 27/34/84 34/37/84
f 30/26/85 38/42/85 31/29/85
f 29/31/86 37/40/86 32/36/86
f 35/41/87 31/29/87 38/42/87
f 33/39/88 36/43/88 37/40/88
f 34/37/89 40/44/89 42/35/89
f 34/37/90 32/36/90 40/44/90
f 37/40/91 45/47/91 40/44/91
f 36/43/92 35/41/92 39/46/92
f 38/42/93 50/51/93 43/45/93
f 40/44/94 54/49/94 42/35/94
f 39/46/95 44/50/95 45/47/95
f 41/25/96 55/64/96 50/51/96
f 44/50/97 43/45/97 47/52/97
f 45/47/98 49/53/98 46/48/98
f 46/48/99 52/55/99 54/49/99
f 47/57/100 50/66/100 57/62/100
f 51/58/101 52/60/101 49/67/101 48/68/101
f 51/58/102 47/57/102 57/62/102
f 51/58/103 56/63/103 52/60/103
f 50/66/104 55/64/104 57/62/104
f 52/60/105 56/63/105 53/61/105
f 56/63/106 51/58/106 58/3/106
f 56/63/107 4/4/107 1/6/107
f 55/64/108 6/7/108 57/62/108
f 58/3/109 57/62/109 3/1/109
f 53/61/110 2/5/110 12/15/110
f 56/63/111 58/3/111 4/4/111
